<?xml version="1.0" encoding="UTF-8" standalone="no"?>
<!-- Created with Inkscape (http://www.inkscape.org/) -->

<svg
   width="256mm"
   height="256mm"
   viewBox="0 0 256 256"
   version="1.1"
   id="svg1"
   xml:space="preserve"
   inkscape:version="1.4.2 (ebf0e94, 2025-05-08)"
   sodipodi:docname="rumil.svg"
   xmlns:inkscape="http://www.inkscape.org/namespaces/inkscape"
   xmlns:sodipodi="http://sodipodi.sourceforge.net/DTD/sodipodi-0.dtd"
   xmlns:xlink="http://www.w3.org/1999/xlink"
   xmlns="http://www.w3.org/2000/svg"
   xmlns:svg="http://www.w3.org/2000/svg"><sodipodi:namedview
     id="namedview1"
     pagecolor="#505050"
     bordercolor="#eeeeee"
     borderopacity="1"
     inkscape:showpageshadow="0"
     inkscape:pageopacity="0"
     inkscape:pagecheckerboard="0"
     inkscape:deskcolor="#505050"
     inkscape:document-units="mm"
     inkscape:zoom="0.74653479"
     inkscape:cx="471.51185"
     inkscape:cy="460.79567"
     inkscape:window-width="1920"
     inkscape:window-height="1056"
     inkscape:window-x="0"
     inkscape:window-y="0"
     inkscape:window-maximized="1"
     inkscape:current-layer="layer1" /><defs
     id="defs1"><linearGradient
       id="linearGradient1"
       inkscape:collect="always"><stop
         style="stop-color:#793b00;stop-opacity:1;"
         offset="0"
         id="stop1" /><stop
         style="stop-color:#000000;stop-opacity:1;"
         offset="1"
         id="stop2" /></linearGradient><rect
       x="93.766561"
       y="188.87264"
       width="778.26245"
       height="585.37124"
       id="rect1" /><linearGradient
       inkscape:collect="always"
       xlink:href="#linearGradient1"
       id="linearGradient2"
       x1="128"
       y1="29.857422"
       x2="128"
       y2="226.14258"
       gradientUnits="userSpaceOnUse"
       gradientTransform="matrix(1.0938919,0,0,1.0938919,-12.018171,-12.018165)" /><filter
       inkscape:menu="Shadows and Glows"
       inkscape:menu-tooltip="Cut out, add inner shadow and colorize some parts of an image"
       style="color-interpolation-filters:sRGB;"
       inkscape:label="Emergence"
       id="filter15"
       x="-0.033532862"
       y="-0.051143602"
       width="1.0810378"
       height="1.123597"><feColorMatrix
         values="0 0 0 0 0 0 0 0 0 0 0 0 0 0 0 0.21 0.72 0.07 0 0 "
         result="result1"
         id="feColorMatrix10" /><feColorMatrix
         values="1 0 0 0 0 0 1 0 0 0 0 0 1 0 0 0 0 0 2 0 "
         result="result9"
         id="feColorMatrix11" /><feComposite
         in2="result9"
         in="SourceGraphic"
         operator="in"
         result="result4"
         id="feComposite11" /><feFlood
         result="result2"
         flood-color="rgb(0,0,0)"
         id="feFlood11" /><feComposite
         in2="result9"
         operator="in"
         result="result10"
         id="feComposite12" /><feComposite
         in2="result4"
         operator="atop"
         id="feComposite13" /><feGaussianBlur
         stdDeviation="3"
         result="result8"
         id="feGaussianBlur13" /><feOffset
         dx="3"
         dy="3"
         result="result3"
         in="result8"
         id="feOffset13" /><feFlood
         flood-opacity="1"
         flood-color="rgb(219,173,62)"
         result="result5"
         id="feFlood13" /><feMerge
         result="result6"
         id="feMerge15"><feMergeNode
           in="result5"
           id="feMergeNode13" /><feMergeNode
           in="result3"
           id="feMergeNode14" /><feMergeNode
           in="result4"
           id="feMergeNode15" /></feMerge><feComposite
         in2="SourceGraphic"
         operator="in"
         result="result7"
         id="feComposite15" /></filter></defs><g
     inkscape:label="Layer 1"
     inkscape:groupmode="layer"
     id="layer1"><path
       id="path2"
       d="m 190.48909,57.647689 c -1.76942,0.04766 -3.5391,0.07183 -5.30916,0.07518 -4.85003,-0.01842 -9.69652,0.0067 -14.54588,0.09101 -5.14093,0.09013 -10.28045,0.127003 -15.4221,0.143016 -9.71791,0.02741 -19.434,0.106841 -29.15113,0.230071 -11.14292,0.141388 -22.28564,0.227668 -33.429237,0.291122 -23.997381,0.133096 -47.992963,0.350233 -71.988958,0.638771 1.676651,2.312871 3.191657,4.205853 5.349286,6.099984 3.668442,2.903954 7.366464,5.761204 10.850633,8.885705 l 1.87109,1.71281 c 1.254577,1.131731 2.50804,2.264728 3.760271,3.399054 3.728178,3.538609 5.684088,5.47804 10.963125,5.935486 1.075179,-0.118707 2.119209,-0.23413 3.162766,-0.349345 -0.329511,1.372961 -0.676995,2.741913 -1.027688,4.109616 -4.85445,14.244721 -3.530405,31.517821 2.234004,45.309811 l 0.847926,1.94796 c 10.245169,23.82017 27.318799,45.53402 51.367392,56.50355 17.61867,7.35726 37.23534,7.68665 55.08356,0.57434 16.12931,-7.2067 25.83648,-19.0231 32.1042,-35.31501 0.39568,-1.11202 0.77986,-2.19143 1.16391,-3.27073 3.12182,-8.39626 4.38802,-16.18876 4.63759,-25.10088 0.0249,-1.72097 0.0253,-1.72122 0.0498,-3.4081 0.24387,-9.46407 -1.08958,-15.5451 -5.71503,-23.88553 L 185.01768,84.800556 h 50.33969 v -1.027122 c -1.45739,-1.304562 -2.9211,-2.60244 -4.41035,-3.870503 -1.20017,-1.012077 -2.39896,-2.026325 -3.59577,-3.042359 -0.62083,-0.527356 -1.22331,-1.03873 -1.82587,-1.550575 -2.07045,-1.695862 -4.09265,-3.39696 -5.96601,-5.310846 -1.59803,-1.662471 -3.22259,-3.281219 -4.89197,-4.872186 -7.64813,-6.840142 -14.17003,-7.735378 -24.17834,-7.479276 z M 87.0771,86.855364 h 71.18513 c -1.25021,2.247682 -2.28388,3.416941 -4.68677,5.401851 -3.0169,2.552816 -5.94585,5.152221 -8.80487,7.881195 -1.05184,1.00119 -1.05183,1.00119 -2.12491,2.0226 -1.43912,1.37525 -2.87599,2.75306 -4.31029,4.13336 -0.6946,0.65951 -1.3889,1.31935 -2.10455,1.99885 l -1.87958,1.80155 c -1.65567,1.4898 -1.63105,1.48964 -3.7923,3.58314 l -1.01771,0.91596 c -1.50889,1.50289 -1.50897,1.50281 -3.59576,3.24247 -4.41385,3.75332 -8.63657,7.67013 -12.84213,11.6539 -4.72245,4.4734 -9.49866,8.85238 -14.410795,13.11686 -3.305719,2.90232 -6.517655,5.90324 -9.731373,8.90662 l -1.966624,1.83208 c -1.571475,1.46434 -3.141869,2.93007 -4.711644,4.39622 -2.054687,-1.02734 -2.054142,-1.02709 -3.153723,-3.73992 C 73.14968,133.53884 75.311038,115.40218 84.987809,96.474803 86.39238,94.04691 86.392661,94.04679 88.447348,91.9921 88.173292,89.95291 88.17295,89.95267 87.419662,87.882486 Z m 91.77618,13.355406 c 0.57297,22.54543 -0.45779,44.3826 -15.85962,62.34691 -13.50768,13.62332 -31.0602,17.96733 -49.76198,18.2355 -0.90359,0.0228 -1.8067,0.0454 -2.73767,0.0689 -6.36488,-0.0216 -10.39035,-1.41024 -15.882801,-4.62797 0,-2.05469 -2.6e-5,-2.05462 1.256062,-3.32275 0.62375,-0.51382 1.247659,-1.02738 1.890312,-1.55678 4.340247,-3.68499 8.501027,-7.53219 12.649367,-11.42949 5.27676,-4.9495 10.58917,-9.84441 15.99981,-14.64765 1.48703,-1.35392 2.92025,-2.76821 4.3103,-4.22155 1.90619,-1.80587 1.87143,-1.77181 2.89808,-2.7313 l 1.06229,-1.12959 c 1.2922,-1.30424 1.29258,-1.30401 3.21081,-2.88916 4.1792,-3.54711 8.19713,-7.23682 12.1994,-10.98009 8.31158,-7.7395 8.31194,-7.73918 12.07167,-11.10783 0.60917,-0.54694 1.21799,-1.09391 1.84564,-1.65742 1.35579,-1.17212 1.39024,-1.20623 2.58824,-2.33706 l 0.95949,-0.82118 c 1.95034,-1.77378 1.95029,-1.77375 4.49458,-3.7241 l 2.52851,-1.96662 c 2.22323,-1.50089 2.22282,-1.50083 4.27751,-1.50083 z"
       sodipodi:nodetypes="cccccccccccccccccccccccccccccccccccccccccccscccccccccccccccccccccccccccccc"
       style="fill:url(#linearGradient2);stroke-width:1.02734;filter:url(#filter15)" /></g></svg>
